Coordinates
version=1
nRows=5
nColumns=63
inDegrees=yes

Units are S.I. units (second, meters, Newtons, ...)
If the header above contains a line with 'inDegrees', this indicates whether rotational values are in degrees (yes) or radians (no).

endheader
time	pelvis_tilt	pelvis_list	pelvis_rotation	pelvis_tx	pelvis_ty	pelvis_tz	hip_flexion_r	hip_adduction_r	hip_rotation_r	knee_angle_r	knee_angle_r_beta	ankle_angle_r	subtalar_angle_r	mtp_angle_r	hip_flexion_l	hip_adduction_l	hip_rotation_l	knee_angle_l	knee_angle_l_beta	ankle_angle_l	subtalar_angle_l	mtp_angle_l	L5_S1_Flex_Ext	L5_S1_Lat_Bending	L5_S1_axial_rotation	L4_L5_Flex_Ext	L4_L5_Lat_Bending	L4_L5_axial_rotation	L3_L4_Flex_Ext	L3_L4_Lat_Bending	L3_L4_axial_rotation	L2_L3_Flex_Ext	L2_L3_Lat_Bending	L2_L3_axial_rotation	L1_L2_Flex_Ext	L1_L2_Lat_Bending	L1_L2_axial_rotation	L1_T12_Flex_Ext	L1_T12_Lat_Bending	L1_T12_axial_rotation	Abs_r3	Abs_r2	Abs_r1	Abs_t1	Abs_t2	neck_flexion	neck_bending	neck_rotation	arm_flex_r	arm_add_r	arm_rot_r	elbow_flex_r	pro_sup_r	wrist_flex_r	wrist_dev_r	arm_flex_l	arm_add_l	arm_rot_l	elbow_flex_l	pro_sup_l	wrist_flex_l	wrist_dev_l
      2.65853659	     -3.29971891	     -3.53786780	     81.19438947	      0.27144066	      0.64243027	      0.60768203	      4.32026035	     -1.82320004	     -3.33299909	     15.90072692	      0.27752004	     32.77568675	    -12.78593163	      0.00000000	     -0.87065842	      0.59958792	      4.19819102	      6.40834871	      0.11184678	     31.18453946	     13.55928144	      0.00000000	     -0.35371157	      1.61799699	     -1.08868475	     -0.65687776	      2.15193599	     -1.15672754	     -0.58111274	      3.93399788	     -1.15672754	     -0.40425696	      3.93399788	     -0.95259915	     -0.32845657	      3.29941946	     -0.88455636	     -0.20211079	      2.50627733	     -0.81651356	     -2.52652640	     18.30310553	     -6.05493796	      0.00000000	      0.00000000	      6.86327021	     -4.67750299	    -11.68537987	     87.32195048	    -18.52803458	      3.17874454	     65.89888589	     88.56962473	    -10.36099678	     33.93981764	    114.53338946	     39.75678428	    355.08921166	     11.57088652	     29.80824619	    -35.41134555	    -11.38663385
      2.68292683	     -2.92019427	     -3.01915006	     81.41165515	      0.27058719	      0.64273317	      0.60880047	      3.72909116	     -1.57789202	     -3.80098074	     15.81571579	      0.27603631	     32.80211677	    -12.53548940	      0.00000000	     -1.47816664	      0.32380134	      4.21965235	      6.35294102	      0.11087974	     31.30158322	     13.45104280	      0.00000000	     -0.42346127	      1.55710339	     -0.96725725	     -0.78640993	      2.07094750	     -1.02771083	     -0.69570452	      3.78594117	     -1.02771083	     -0.48397389	      3.78594117	     -0.84635009	     -0.39322614	      3.17524523	     -0.78589651	     -0.24196577	      2.41195315	     -0.72544294	     -3.02474151	     17.61426493	     -5.37959463	      0.00000000	      0.00000000	      7.99017175	     -2.19357370	    -11.82931516	     91.02976795	    -19.79312149	      5.60150531	     64.59227673	     88.74102276	     -4.32279503	     33.75653160	    122.92325752	     40.36616037	    373.61670258	      1.04794721	     13.68871242	    -33.67277153	    -12.00514547
      2.70731707	     -2.64644554	     -2.43708547	     81.70657229	      0.26985727	      0.64342499	      0.61009511	      3.10858822	     -1.44919776	     -4.47749652	     15.79134115	      0.27561090	     32.77854572	    -12.04072065	      0.00000000	     -2.07302776	      0.14543053	      4.19751409	      6.33198536	      0.11051399	     31.30912023	     13.40413672	      0.00000000	     -0.50250954	      1.51725292	     -0.88486200	     -0.93321046	      2.01794638	     -0.94016587	     -0.82557292	      3.68904875	     -0.94016587	     -0.57431815	      3.68904875	     -0.77425425	     -0.46663035	      3.09398215	     -0.71895037	     -0.28713395	      2.35022477	     -0.66364650	     -3.58937536	     17.16346847	     -4.92133697	      0.00000000	      0.00000000	      8.88692104	     -0.14042524	    -10.79575000	     93.90970903	    -20.12617408	      6.84317263	     62.82598967	     88.74344753	      1.22708206	     33.44752774	    125.56746907	     40.58454990	    370.24064858	      0.59148606	      7.61277916	    -33.01394970	    -17.07977930
      2.73170732	     -2.47599169	     -2.01652357	     81.61624984	      0.26948514	      0.64399812	      0.61147474	      2.77560373	     -1.36001926	     -4.50196096	     15.90757344	      0.27763953	     32.63398762	    -11.92147669	      0.00000000	     -2.46417720	      0.07821317	      3.87001381	      6.37300763	      0.11122997	     31.22890788	     13.15100605	      0.00000000	     -0.60092473	      1.48634316	     -0.93769509	     -1.11597732	      1.97683640	     -0.99630103	     -0.98725924	      3.61389475	     -0.99630103	     -0.68679688	      3.61389475	     -0.82048320	     -0.55801871	      3.03095097	     -0.76187726	     -0.34336839	      2.30234555	     -0.70327132	     -4.29234526	     16.81381107	     -5.21517877	      0.00000000	      0.00000000	      9.64978569	      1.54556413	     -9.18640332	     95.59498068	    -18.84353580	      7.54404898	     60.99837570	     88.42310077	      1.77558281	     32.79632961	    125.95330974	     39.60282379	    370.72695438	      0.60202460	      7.84578518	    -32.22341970	    -18.48216691
      2.75609756	     -2.24510798	     -1.90025125	     81.81233190	      0.26868409	      0.64423741	      0.61199745	      2.65768564	     -1.20744621	     -4.96363247	     15.99411009	      0.27914988	     32.59719766	    -11.52565377	      0.00000000	     -2.55292398	     -0.09870522	      4.05454008	      6.43667044	      0.11234109	     31.23717902	     12.86835022	      0.00000000	     -0.65715352	      1.49622832	     -1.29189897	     -1.22039981	      1.98998366	     -1.37264266	     -1.07963752	      3.63792953	     -1.37264266	     -0.75106076	      3.63792953	     -1.13041160	     -0.61023276	      3.05110879	     -1.04966791	     -0.37549752	      2.31765766	     -0.96892423	     -4.69398190	     16.92563398	     -7.18515451	      0.00000000	      0.00000000	      9.59675949	      3.37163203	     -4.94080036	     96.31450051	    -15.52451514	      6.76652721	     58.68233676	     87.89556898	      3.18887175	     30.62794787	    124.63448234	     37.19570300	    371.19494262	      0.87315184	      9.53288662	    -28.78634223	    -20.64500974
